<?xml version="1.0" standalone="no"?>
<!DOCTYPE svg PUBLIC "-//W3C//DTD SVG 20010904//EN"
 "http://www.w3.org/TR/2001/REC-SVG-20010904/DTD/svg10.dtd">
<svg version="1.0" xmlns="http://www.w3.org/2000/svg"
 width="122.000000pt" height="122.000000pt" viewBox="0 0 122.000000 122.000000"
 preserveAspectRatio="xMidYMid meet">
<metadata>
Created by potrace 1.14, written by Peter Selinger 2001-2017
</metadata>
<g transform="translate(0.000000,122.000000) scale(0.100000,-0.100000)"
fill="#000000" stroke="none">
<path d="M343 963 c-7 -2 -87 -79 -178 -169 -119 -118 -165 -171 -165 -187 0
-17 32 -55 105 -128 57 -57 109 -105 115 -107 5 -2 10 -9 11 -15 1 -7 26 -34
56 -62 l55 -50 252 -1 c138 -1 253 2 256 5 3 3 22 21 43 39 21 17 34 32 30 32
-4 0 9 11 28 25 19 14 33 28 32 30 -2 3 -1 5 2 5 9 1 61 55 58 62 -2 4 6 9 17
13 11 3 20 13 20 21 0 8 3 14 8 12 8 -4 117 105 117 118 0 5 -79 88 -176 185
l-177 176 -100 1 c-58 1 -104 -3 -107 -8 -4 -6 -10 -8 -15 -5 -4 3 -11 -6 -14
-20 -8 -33 -27 -32 -51 4 -19 29 -20 30 -115 29 -52 0 -101 -2 -107 -5z"/>
</g>
</svg>
