<?xml version="1.0" encoding="UTF-8" ?>
<!DOCTYPE svg PUBLIC "-//W3C//DTD SVG 1.1//EN" "http://www.w3.org/Graphics/SVG/1.1/DTD/svg11.dtd">
<svg width="678pt" height="854pt" viewBox="0 0 678 854" version="1.1" xmlns="http://www.w3.org/2000/svg">
<g id="#ffffffff">
<path fill="#ffffff" opacity="1.00" d=" M 0.00 0.00 L 678.00 0.00 L 678.00 854.00 L 0.00 854.00 L 0.00 0.00 M 9.06 12.34 C 8.92 64.84 9.04 117.34 9.00 169.84 C 61.61 117.23 114.21 64.62 166.81 12.00 C 114.23 11.91 61.65 12.08 9.06 12.34 M 505.18 12.00 C 557.92 64.75 610.63 117.52 663.40 170.24 C 663.43 117.63 663.39 65.02 663.43 12.41 C 610.68 11.99 557.93 11.95 505.18 12.00 M 8.97 194.79 C 9.04 203.57 8.98 212.34 9.00 221.12 C 53.65 265.32 98.33 309.49 143.00 353.66 C 143.00 256.29 143.00 158.92 143.00 61.55 C 98.32 105.97 53.59 150.32 8.97 194.79 M 531.00 64.17 C 531.04 160.70 530.92 257.22 531.06 353.74 C 575.19 353.60 619.32 353.84 663.45 353.62 C 663.37 302.07 663.40 250.53 663.44 198.99 C 663.26 197.50 663.91 195.57 662.56 194.48 C 618.71 151.05 574.86 107.61 531.00 64.17 M 9.01 244.51 C 8.99 317.66 9.00 390.81 9.00 463.96 C 8.18 485.61 8.76 507.32 8.58 528.99 C 8.59 559.38 8.58 589.77 8.59 620.16 C 53.39 575.10 98.19 530.04 142.96 484.96 C 142.95 448.31 142.94 411.66 142.97 375.01 C 98.35 331.48 53.65 288.02 9.01 244.51 M 552.04 384.24 C 552.11 401.17 551.84 418.11 552.18 435.04 C 569.07 417.94 586.14 401.02 603.11 384.00 C 586.09 384.05 569.06 384.17 552.04 384.24 M 558.58 450.52 C 580.87 472.56 603.12 494.63 625.39 516.68 C 637.91 516.73 650.42 516.64 662.94 516.73 C 663.08 472.49 662.96 428.24 663.00 384.00 C 649.96 383.98 636.92 384.00 623.88 383.99 C 602.10 406.15 580.31 428.31 558.58 450.52 M 552.03 465.62 C 551.98 489.21 552.12 512.80 551.96 536.39 C 575.71 536.76 599.48 536.66 623.24 536.86 C 599.55 513.06 575.79 489.34 552.03 465.62 M 91.86 559.12 C 108.89 559.03 125.92 558.96 142.95 558.87 C 142.96 541.92 142.94 524.98 142.96 508.03 C 125.91 525.05 108.90 542.09 91.86 559.12 M 26.96 623.93 C 20.92 630.30 14.41 636.29 8.64 642.90 C 8.51 660.04 8.61 677.19 8.59 694.34 C 53.73 694.36 98.86 694.35 143.99 694.34 C 144.01 654.24 144.00 614.14 143.99 574.04 C 121.31 574.04 98.63 574.03 75.95 574.04 C 59.61 590.66 43.29 607.30 26.96 623.93 M 529.01 574.04 C 529.00 614.14 528.99 654.24 529.01 694.34 C 560.69 694.37 592.37 694.33 624.05 694.36 C 625.56 694.72 626.53 693.44 627.46 692.53 C 639.40 680.02 651.54 667.69 663.45 655.15 C 663.36 628.11 663.44 601.08 663.40 574.04 C 618.60 574.03 573.80 574.04 529.01 574.04 M 529.00 710.00 C 529.01 754.23 528.98 798.47 529.02 842.70 C 561.19 842.66 593.37 842.74 625.55 842.66 C 638.14 829.81 650.83 817.07 663.42 804.21 C 663.35 785.76 663.49 767.31 663.36 748.86 C 651.15 735.65 638.09 723.13 625.66 710.07 C 593.44 709.89 561.22 710.04 529.00 710.00 M 9.01 730.04 C 8.99 770.14 9.00 810.24 9.01 850.34 C 53.34 850.35 97.66 850.35 141.99 850.34 C 142.00 810.24 142.01 770.14 141.99 730.04 C 97.66 730.04 53.34 730.04 9.01 730.04 Z" />
</g>
<g id="#f0457bff">
<path fill="#f0457b" opacity="1.00" d=" M 9.06 12.34 C 61.65 12.08 114.23 11.91 166.81 12.00 C 114.21 64.62 61.61 117.23 9.00 169.84 C 9.04 117.34 8.92 64.84 9.06 12.34 Z" />
<path fill="#f0457b" opacity="1.00" d=" M 552.03 465.62 C 575.79 489.34 599.55 513.06 623.24 536.86 C 599.48 536.66 575.71 536.76 551.96 536.39 C 552.12 512.80 551.98 489.21 552.03 465.62 Z" />
<path fill="#f0457b" opacity="1.00" d=" M 26.96 623.93 C 43.29 607.30 59.61 590.66 75.95 574.04 C 98.63 574.03 121.31 574.04 143.99 574.04 C 144.00 614.14 144.01 654.24 143.99 694.34 C 98.86 694.35 53.73 694.36 8.59 694.34 C 8.61 677.19 8.51 660.04 8.64 642.90 C 14.41 636.29 20.92 630.30 26.96 623.93 Z" />
<path fill="#f0457b" opacity="1.00" d=" M 529.01 574.04 C 573.80 574.04 618.60 574.03 663.40 574.04 C 663.44 601.08 663.36 628.11 663.45 655.15 C 651.54 667.69 639.40 680.02 627.46 692.53 C 626.53 693.44 625.56 694.72 624.05 694.36 C 592.37 694.33 560.69 694.37 529.01 694.34 C 528.99 654.24 529.00 614.14 529.01 574.04 Z" />
<path fill="#f0457b" opacity="1.00" d=" M 9.01 730.04 C 53.34 730.04 97.66 730.04 141.99 730.04 C 142.01 770.14 142.00 810.24 141.99 850.34 C 97.66 850.35 53.34 850.35 9.01 850.34 C 9.00 810.24 8.99 770.14 9.01 730.04 Z" />
</g>
<g id="#ee1d23ff">
<path fill="#ee1d23" opacity="1.00" d=" M 505.18 12.00 C 557.93 11.95 610.68 11.99 663.43 12.41 C 663.39 65.02 663.43 117.63 663.40 170.24 C 610.63 117.52 557.92 64.75 505.18 12.00 Z" />
<path fill="#ee1d23" opacity="1.00" d=" M 552.04 384.24 C 569.06 384.17 586.09 384.05 603.11 384.00 C 586.14 401.02 569.07 417.94 552.18 435.04 C 551.84 418.11 552.11 401.17 552.04 384.24 Z" />
<path fill="#ee1d23" opacity="1.00" d=" M 91.86 559.12 C 108.90 542.09 125.91 525.05 142.96 508.03 C 142.94 524.98 142.96 541.92 142.95 558.87 C 125.92 558.96 108.89 559.03 91.86 559.12 Z" />
</g>
<g id="#f37255ff">
<path fill="#f37255" opacity="1.00" d=" M 8.97 194.79 C 53.59 150.32 98.32 105.97 143.00 61.55 C 143.00 158.92 143.00 256.29 143.00 353.66 C 98.33 309.49 53.65 265.32 9.00 221.12 C 8.98 212.34 9.04 203.57 8.97 194.79 Z" />
<path fill="#f37255" opacity="1.00" d=" M 531.00 64.17 C 574.86 107.61 618.71 151.05 662.56 194.48 C 663.91 195.57 663.26 197.50 663.44 198.99 C 663.40 250.53 663.37 302.07 663.45 353.62 C 619.32 353.84 575.19 353.60 531.06 353.74 C 530.92 257.22 531.04 160.70 531.00 64.17 Z" />
</g>
<g id="#942a1dff">
<path fill="#942a1d" opacity="1.00" d=" M 9.01 244.51 C 53.65 288.02 98.35 331.48 142.97 375.01 C 142.94 411.66 142.95 448.31 142.96 484.96 C 98.19 530.04 53.39 575.10 8.59 620.16 C 8.58 589.77 8.59 559.38 8.58 528.99 C 8.76 507.32 8.18 485.61 9.00 463.96 C 9.00 390.81 8.99 317.66 9.01 244.51 Z" />
</g>
<g id="#b13b24ff">
<path fill="#b13b24" opacity="1.00" d=" M 558.58 450.52 C 580.31 428.31 602.10 406.15 623.88 383.99 C 636.92 384.00 649.96 383.98 663.00 384.00 C 662.96 428.24 663.08 472.49 662.94 516.73 C 650.42 516.64 637.91 516.73 625.39 516.68 C 603.12 494.63 580.87 472.56 558.58 450.52 Z" />
<path fill="#b13b24" opacity="1.00" d=" M 529.00 710.00 C 561.22 710.04 593.44 709.89 625.66 710.07 C 638.09 723.13 651.15 735.65 663.36 748.86 C 663.49 767.31 663.35 785.76 663.42 804.21 C 650.83 817.07 638.14 829.81 625.55 842.66 C 593.37 842.74 561.19 842.66 529.02 842.70 C 528.98 798.47 529.01 754.23 529.00 710.00 Z" />
</g>
</svg>
