<?xml version="1.0" encoding="UTF-8" ?>
<!DOCTYPE svg PUBLIC "-//W3C//DTD SVG 1.1//EN" "http://www.w3.org/Graphics/SVG/1.1/DTD/svg11.dtd">
<svg width="456pt" height="271pt" viewBox="0 0 456 271" version="1.1" xmlns="http://www.w3.org/2000/svg">
<g id="#010101ff">
</g>
<g id="#161616ff">
</g>
<g id="#434343ff">
</g>
<g id="#d1d1d1ff">
<path fill="#d1d1d1" opacity="1.00" d=" M 142.57 32.56 C 144.67 30.17 147.91 29.66 150.93 29.74 C 167.97 29.80 185.01 29.80 202.05 29.77 C 204.76 29.90 208.13 29.58 209.80 32.21 C 214.35 38.03 218.60 44.10 223.10 49.96 C 226.67 45.54 230.14 41.04 233.38 36.39 C 234.93 34.31 236.35 32.05 238.49 30.53 C 240.88 29.68 243.48 29.81 245.98 29.75 C 261.99 29.81 278.01 29.81 294.02 29.72 C 296.89 29.86 300.20 29.47 302.54 31.50 C 305.99 34.35 308.87 37.81 312.07 40.92 C 342.63 71.37 373.00 102.02 403.69 132.34 C 406.16 134.91 409.04 137.24 410.77 140.41 C 411.90 143.23 408.97 145.45 407.40 147.40 C 371.79 182.63 336.58 218.24 301.02 253.52 L 300.19 253.51 C 248.75 253.44 197.32 253.33 145.89 253.57 L 145.14 253.59 C 134.54 242.29 123.29 231.61 112.44 220.56 C 87.41 195.64 62.59 170.50 37.40 145.73 C 36.08 144.48 35.37 142.78 34.58 141.18 C 37.12 138.20 39.74 135.28 42.53 132.53 C 75.95 99.29 109.25 65.91 142.57 32.56 M 155.34 38.30 C 166.65 54.72 178.21 70.98 189.75 87.25 C 200.84 102.76 211.38 118.68 223.13 133.71 C 232.20 122.74 239.93 110.76 248.26 99.24 C 262.42 78.93 277.02 58.92 290.96 38.45 C 275.63 37.96 260.28 37.44 244.95 38.03 C 241.29 37.64 239.66 41.33 237.66 43.66 C 233.90 48.99 229.42 53.83 226.16 59.49 C 223.81 60.70 221.42 59.93 219.25 58.74 C 218.53 56.91 217.55 55.20 216.35 53.64 C 212.43 48.57 208.63 43.39 204.71 38.31 C 195.49 37.49 186.24 37.94 177.00 37.81 C 169.77 37.65 162.57 38.69 155.34 38.30 M 134.36 52.36 C 110.58 76.33 86.39 99.89 62.95 124.18 C 64.10 125.00 64.97 126.88 66.64 126.38 C 69.77 125.75 72.76 124.59 75.77 123.52 C 104.87 112.82 133.81 101.70 162.87 90.87 C 167.87 89.03 172.77 86.91 177.73 84.97 C 170.42 73.53 162.22 62.69 154.47 51.54 C 151.77 48.04 149.65 43.92 146.07 41.21 C 141.86 44.59 138.23 48.62 134.36 52.36 M 277.27 72.27 C 274.34 76.49 271.19 80.61 269.00 85.28 C 294.85 95.57 321.04 104.98 347.01 114.97 C 360.91 120.08 374.70 125.54 388.89 129.79 C 382.92 124.20 377.84 117.74 371.89 112.13 C 357.26 97.43 342.57 82.77 327.91 68.09 C 318.69 58.90 309.66 49.52 299.91 40.88 C 292.08 51.14 284.73 61.74 277.27 72.27 M 172.11 96.07 C 140.62 107.93 109.04 119.55 77.68 131.77 C 75.29 132.74 72.50 133.55 71.24 136.04 C 73.34 137.19 75.70 137.66 78.08 137.57 C 123.63 137.70 169.19 137.75 214.74 137.53 C 206.45 124.56 197.34 112.14 188.46 99.57 C 186.65 97.12 184.99 94.52 182.83 92.36 C 179.15 93.27 175.69 94.87 172.11 96.07 M 263.36 92.33 C 252.31 107.12 241.89 122.37 231.38 137.53 C 281.92 137.75 332.47 137.76 383.01 137.42 C 373.61 134.33 364.60 130.18 355.33 126.73 C 324.66 115.29 294.15 103.42 263.36 92.33 M 50.19 146.40 C 72.99 170.38 96.91 193.29 120.09 216.91 C 128.90 225.48 137.36 234.42 146.52 242.63 C 162.89 220.51 178.35 197.74 194.43 175.41 C 200.99 165.80 208.23 156.63 214.06 146.54 C 209.71 146.25 205.38 145.60 201.01 145.67 C 156.34 145.68 111.66 145.65 66.99 145.69 C 61.38 145.65 55.81 146.71 50.19 146.40 M 232.04 146.50 C 240.19 159.05 249.11 171.08 257.65 183.37 C 271.61 203.20 285.71 222.94 299.68 242.75 C 305.16 238.23 310.02 233.04 315.06 228.05 C 336.20 206.87 357.41 185.75 378.54 164.54 C 384.44 158.61 390.48 152.81 395.97 146.49 C 390.63 146.58 385.34 145.67 380.01 145.68 C 335.34 145.67 290.67 145.66 246.00 145.67 C 241.33 145.60 236.70 146.34 232.04 146.50 M 215.99 158.96 C 200.17 181.17 184.56 203.54 168.73 225.74 C 164.49 231.89 160.06 237.92 156.17 244.32 C 159.39 245.10 162.67 245.52 165.99 245.42 C 204.00 245.49 242.00 245.47 280.01 245.43 C 283.40 245.50 286.76 245.01 290.10 244.42 C 282.30 231.34 272.84 219.33 264.25 206.76 C 250.64 187.64 237.31 168.31 223.44 149.37 C 220.90 152.52 218.34 155.67 215.99 158.96 Z" />
</g>
</svg>
